<?xml version="1.0" encoding="UTF-8" standalone="no"?>
<!DOCTYPE svg PUBLIC "-//W3C//DTD SVG 1.1//EN" "http://www.w3.org/Graphics/SVG/1.1/DTD/svg11.dtd">
<svg xmlns:dc="http://purl.org/dc/elements/1.1/" version="1.1" xmlns="http://www.w3.org/2000/svg" xmlns:xl="http://www.w3.org/1999/xlink" viewBox="-2085.9677 -6607.8785 6209.147 1915.857" width="6209.147" height="1915.857">
  <defs/>
  <metadata> Produced by OmniGraffle 7.19.4\n2022-02-08 16:53:57 +0000</metadata>
  <g id="Canvas_3" stroke-opacity="1" stroke-dasharray="none" fill-opacity="1" fill="none" stroke="none">
    <title>Canvas 3</title>
    <g id="Canvas_3_Layer_1">
      <title>Layer 1</title>
      <g id="Group_1883">
        <g id="Graphic_1880">
          <path d="M -484.12376 -4744.076 C -482.9612 -4744.8366 -481.8093 -4745.6076 -480.6685 -4746.389 C -363.9413 -4826.3676 -344.1047 -4934.753 -344.1047 -4934.753 C -329.40165 -4983.3975 -295.36917 -5132.7623 -255.58756 -5314.839 C -352.5369 -5122.2267 -432.54637 -4924.372 -484.12376 -4744.076 Z M -196.04776 -5591.0976 C -124.00616 -5928.993 -54.141454 -6267.4274 -54.141454 -6267.4274 L -184.45333 -6266.345 C -182.56194 -6250.6294 -180.94527 -6232.349 -179.4377 -6210.659 C -165.53077 -6010.573 -189.9938 -5734.774 -235.2665 -5528.3256 C -222.36526 -5549.422 -209.28807 -5570.355 -196.04777 -5591.0976 Z M -198.26027 -6266.2305 L -319.62064 -6265.2226 L -472.3571 -5399.021 L -531.3719 -5765.0886 C -538.236 -5758.694 -544.73066 -5750.299 -551.301 -5739.269 C -572.0976 -5704.357 -583.4146 -5656.013 -584.041 -5609.441 C -523.8177 -5436.5154 -483.99456 -5251.512 -470.8391 -5081.3686 C -420.3656 -5194.273 -363.03882 -5307.4554 -300.5608 -5417.522 C -292.8793 -5434.909 -285.00285 -5456.506 -277.04998 -5482.372 C -221.95935 -5661.547 -184.06464 -5977.7116 -192.40975 -6188.546 C -193.62444 -6219.2355 -195.54912 -6244.759 -198.26027 -6266.2305 Z M -533.1673 -5776.226 L -612.35535 -6267.4274 L -890.3599 -6267.4274 L -850.3007 -6102.7166 C -830.9124 -6080.9905 -810.3954 -6054.198 -786.9723 -6020.7175 C -713.806 -5916.136 -650.17374 -5788.5526 -599.2945 -5651.804 C -592.2613 -5687.308 -579.0457 -5721.143 -560.0444 -5748.1006 C -550.26786 -5761.971 -542.3788 -5770.468 -533.1673 -5776.226 Z M -825.6664 -6001.428 L -610.1505 -5115.295 C -610.1505 -5115.295 -582.24434 -5019.4503 -629.1054 -4963.656 C -675.9664 -4907.8615 -826.8894 -4925.746 -826.8894 -4925.746 L -827.4326 -4880.885 C -787.2483 -4821.3815 -750.8087 -4757.228 -719.8753 -4692.0214 C -687.47345 -4692.132 -650.95624 -4694.0394 -614.7542 -4699.574 C -609.30785 -4717.619 -603.61484 -4735.7815 -597.6832 -4754.0445 L -597.8118 -4754.465 C -597.51494 -4755.0984 -597.2194 -4755.735 -596.92506 -4756.375 C -589.4061 -4779.4574 -581.5068 -4802.6994 -573.24326 -4826.069 C -567.13774 -4850.726 -562.22716 -4878.2163 -558.6388 -4908.526 C -522.3814 -5214.7713 -634.8336 -5692.893 -809.808 -5976.442 C -815.1602 -5985.1154 -820.4432 -5993.4395 -825.6664 -6001.428 Z M -771.3743 -4693.291 C -788.5813 -4731.5785 -807.7247 -4769.65 -828.3326 -4806.5487 L -829.6434 -4698.288 C -829.6434 -4698.288 -806.5966 -4695.1247 -771.3743 -4693.291 Z" fill="#4c4c4c"/>
        </g>
        <g id="Graphic_1879">
          <path d="M -981.3011 -6189.97 L -981.3011 -6607.8785 L -1315.6867 -6607.8785 L -1442.5722 -5948.1426 C -1406.143 -5967.937 -1396.412 -6011.427 -1410.5158 -6045.541 C -1417.0499 -6061.3455 -1419.9823 -6076.503 -1414.3546 -6086.261 L -1404.2014 -6092.727 C -1415.6903 -6083.011 -1412.1773 -6065.55 -1404.0655 -6047.697 C -1386.5311 -6009.106 -1396.9202 -5963.2465 -1433.2851 -5940.1074 C -1438.719 -5936.65 -1442.3025 -5934.528 -1445.5015 -5932.912 L -1533.8869 -5473.356 L -1592.3784 -5779.343 C -1658.1057 -5627.0506 -1687.203 -5402.5585 -1657.4377 -5259.4816 C -1654.3063 -5244.429 -1650.6397 -5230.837 -1646.5013 -5218.7065 C -1594.4886 -5130.3695 -1538.576 -5043.311 -1480.2738 -4959.8345 L -1433.861 -4959.8345 L -1371.2892 -5312.213 C -1371.955 -5312.226 -1372.705 -5312.251 -1373.5733 -5312.2887 C -1388.6418 -5312.9383 -1399.8137 -5325.018 -1401.252 -5339.7804 C -1401.9174 -5346.61 -1403.9077 -5352.516 -1409.0894 -5353.45 L -1404.8811 -5353.267 C -1401.4685 -5351.2947 -1399.7052 -5346.188 -1398.92 -5340.2556 C -1397.1842 -5327.138 -1386.1478 -5315.415 -1371.0978 -5316.397 C -1370.9068 -5316.4097 -1370.7212 -5316.4214 -1370.5398 -5316.433 L -1206.9565 -6237.666 L -1215.446 -5224.348 C -1200.0216 -5204.655 -1186.7778 -5183.8965 -1177.092 -5163.828 C -1165.3215 -5230.3144 -1145.2024 -5258.4684 -1100.0335 -5297.851 L -1100.0475 -5297.884 C -1083.2134 -5311.4463 -1079.5583 -5316.391 -1072.1604 -5325.291 C -1036.7312 -5367.914 -1047.7456 -5426.048 -1082.9952 -5459.543 C -1098.9375 -5474.692 -1110.3102 -5490.965 -1108.8027 -5505.371 L -1100.2573 -5518.278 C -1108.672 -5500.8546 -1095.4125 -5482.18 -1076.5452 -5465.4496 C -1035.7626 -5429.286 -1023.9811 -5369.979 -1054.5983 -5323.776 C -1068.7627 -5302.401 -1068.7868 -5305.3414 -1092.9047 -5280.932 L -1092.9507 -5281.041 C -1123.31 -5252.8487 -1142.1838 -5216.417 -1151.2432 -5155.539 C -1095.1744 -5153.108 -1060.492 -5136.7136 -992.8605 -5075.768 C -988.9966 -5072.2864 -985.1431 -5068.742 -981.3011 -5065.1373 L -981.3011 -6157.74 C -997.6276 -6165.691 -1014.3746 -6171.593 -1031.8696 -6175.917 L -1031.8502 -6175.736 C -1082.2519 -6190.517 -1080.1023 -6186.563 -1114.9269 -6204.6675 C -1190.2021 -6243.801 -1218.4406 -6331.942 -1190.6789 -6410.62 C -1177.8356 -6447.019 -1173.9426 -6481.859 -1198.1375 -6498.941 L -1177.1193 -6488.003 C -1164.4103 -6469.8345 -1167.56 -6439.61 -1177.661 -6407.499 C -1199.9952 -6336.499 -1171.6004 -6250.498 -1092.5397 -6219.728 C -1076.0312 -6213.303 -1067.4686 -6209.396 -1034.8674 -6203.731 L -1034.8616 -6203.6765 C -1015.2048 -6199.468 -997.5588 -6195.0884 -981.3011 -6189.97 Z M -1216.1386 -5141.6846 L -1217.6621 -4959.8345 L -1186.3554 -4959.8344 C -1189.5365 -5013.778 -1188.833 -5066.036 -1183.728 -5114.7945 C -1183.2459 -5119.3995 -1182.75 -5123.862 -1182.2377 -5128.189 C -1182.7983 -5131.6003 -1183.6138 -5135.246 -1184.694 -5139.1196 C -1200.6658 -5139.7823 -1205.5535 -5139.4996 -1216.1386 -5141.6846 Z M -1599.6237 -5817.245 L -1620.7335 -5927.6765 C -1638.5815 -5868.574 -1644.9167 -5792.2054 -1634.7673 -5741.816 C -1624.0736 -5768.382 -1612.3365 -5793.6834 -1599.6237 -5817.245 Z M -1624.1398 -5945.496 L -1750.759 -6607.8785 L -1961.7252 -6607.8785 C -1914.4117 -6546.505 -1891.1854 -6467.9665 -1906.5347 -6391.3756 C -1917.599 -6336.1654 -1919.9552 -6342.635 -1948.2067 -6275.059 L -1948.383 -6275.274 C -1996.708 -6172.998 -1996.921 -6051.476 -1928.9016 -5832.515 C -1905.2695 -5756.44 -1875.1703 -5676.7774 -1839.826 -5595.391 L -1851.843 -6237.666 L -1706.9877 -5421.9015 C -1699.9573 -5519.2585 -1678.7849 -5621.911 -1645.9244 -5712.61 C -1648.532 -5722.12 -1650.728 -5732.768 -1651.9734 -5743.668 C -1658.9279 -5804.532 -1648.1685 -5884.95 -1624.1398 -5945.496 Z M -1991.0197 -6607.8785 L -2085.9677 -6607.8785 L -2085.9677 -6320.583 C -2055.2648 -6294.068 -2029.608 -6261.4446 -2014.1144 -6227.9465 C -2013.6694 -6226.9844 -2013.2346 -6226.0155 -2012.81 -6225.041 C -2003.274 -6251.531 -1990.803 -6278.555 -1975.5092 -6308.304 L -1975.5625 -6308.369 C -1953.1143 -6347.8735 -1949.8109 -6360.861 -1942.2544 -6384.7045 C -1917.1897 -6463.791 -1941.7725 -6546.586 -1991.0197 -6607.8785 Z M -2085.9677 -6293.33 L -2085.9677 -5897.0746 C -2049.3124 -5870.932 -2015.179 -5843.106 -1984.9797 -5814.511 C -1988.9398 -5828.727 -1992.7202 -5842.866 -1996.316 -5856.921 C -2035.702 -6010.872 -2044.779 -6097.988 -2026.6145 -6178.2 C -2027.1032 -6186.647 -2028.8755 -6195.942 -2032.0387 -6205.986 C -2041.3365 -6235.51 -2061.0346 -6266.3736 -2085.9677 -6293.33 Z M -2085.9677 -5849.495 L -2085.9677 -5456.476 C -1999.9939 -5401.7375 -1912.7803 -5339.251 -1833.8535 -5276.1697 L -1836.4323 -5414.0004 C -1879.9363 -5509.721 -1917.9696 -5605.142 -1949.2192 -5698.269 C -1956.1947 -5711.0846 -1965.1436 -5724.76 -1976.1336 -5739.213 C -2004.0788 -5775.966 -2042.0814 -5813.622 -2085.9677 -5849.495 Z M -2085.9677 -5434.701 L -2085.9677 -5130.9395 C -2071.834 -5128.702 -2062.7457 -5117.341 -2064.535 -5099.969 C -2065.546 -5090.1536 -2066.0573 -5090.925 -2069.8308 -5077.3867 L -2069.8647 -5077.402 C -2076.5357 -5056.3345 -2074.5986 -5037.2325 -2059.314 -5009.9047 C -2049.6543 -4992.634 -2036.1122 -4975.717 -2020.1383 -4960.1534 L -1827.9583 -4961.0845 L -1833.257 -5244.2885 C -1909.674 -5309.1145 -1998.5944 -5376.0933 -2085.9677 -5434.701 Z M -1638.9096 -5038.514 L -1624.9385 -4959.8345 L -1590.6191 -4959.8345 C -1606.9976 -4985.843 -1623.1045 -5012.0844 -1638.9096 -5038.514 Z M -2085.9677 -5126.5036 L -2085.9677 -4959.8345 L -2041.8058 -4960.0484 C -2053.78 -4974.8454 -2063.85 -4990.567 -2071.334 -5006.7485 C -2085.5318 -5037.444 -2084.9933 -5050.975 -2075.0784 -5079.776 L -2075.0886 -5079.781 C -2071.8597 -5088.3104 -2071.501 -5090.692 -2070.5855 -5095.219 C -2067.2061 -5111.9264 -2074.4996 -5122.983 -2085.9677 -5126.5036 Z M -981.3011 -5023.6325 C -982.8435 -5025.316 -984.3875 -5026.986 -985.933 -5028.644 C -995.1424 -5018.4287 -1004.3067 -5004.9104 -1014.1052 -4986.997 C -1018.7948 -4978.423 -1023.2903 -4969.339 -1027.5753 -4959.834 L -981.3011 -4959.834 Z M -1151.8902 -4959.8344 L -1044.6746 -4959.834 C -1037.669 -4974.326 -1030.1603 -4988.0677 -1022.1878 -5000.838 C -1011.8029 -5017.472 -1003.2449 -5029.2163 -994.7092 -5037.899 L -994.7092 -5037.899 C -996.7673 -5040.0325 -998.8277 -5042.1423 -1000.8901 -5044.228 C -1062.1138 -5106.1436 -1107.0261 -5131.7846 -1153.5759 -5137.376 C -1154.9517 -5124.815 -1155.9746 -5111.3033 -1156.6564 -5096.7284 C -1158.654 -5054.024 -1156.8965 -5007.795 -1151.8902 -4959.8344 Z M -1216.0065 -5157.455 C -1207.5462 -5156.2174 -1201.9345 -5155.2455 -1190.2781 -5155.378 C -1196.3491 -5170.478 -1205.1018 -5186.61 -1215.628 -5202.622 Z" fill="#4c4c4c"/>
        </g>
        <g id="Graphic_1881">
          <path d="M 135.90503 -5044.415 C 197.43435 -4988.263 269.1395 -4959.834 334.8619 -4959.834 C 541.36536 -4959.834 668.9571 -5087.763 711.98755 -5385.142 C 711.98755 -5385.142 713.6795 -5399.419 715.8582 -5423.4294 L 486.29137 -5423.4294 C 486.29137 -5218.977 436.508 -5166.7826 350.01154 -5166.7826 C 263.0318 -5165.81 201.24362 -5264.3396 194.6889 -5458.5704 C 194.6889 -5458.5704 189.96144 -5543.32 189.96144 -5632.1627 C 189.96144 -5649.9486 190.1955 -5667.827 190.56992 -5685.049 C 113.47891 -5661.2504 36.28917 -5628.035 -29.350094 -5590.053 C -23.893403 -5408.995 -15.707224 -5385.142 -15.707224 -5385.142 C -9.914957 -5316.96 4.99523 -5256.816 26.374695 -5204.826 C 32.30268 -5208.8094 38.659515 -5212.305 45.386746 -5215.239 C 57.050005 -5220.326 67.50826 -5226.325 74.67144 -5233.484 C 76.02533 -5259.364 71.99732 -5273.177 62.60517 -5283.936 L 62.5896 -5283.908 C 56.756965 -5291.1995 56.66681 -5290.4045 53.44154 -5296.592 C 46.46991 -5309.9666 51.34522 -5325.6816 63.410714 -5334.3083 C 68.992574 -5338.2994 73.11212 -5342.976 71.330496 -5347.931 L 73.27597 -5344.1947 C 73.27415 -5340.253 69.73354 -5336.173 64.98825 -5332.5265 C 54.496043 -5324.4644 49.86167 -5309.045 58.23741 -5296.5025 C 59.986325 -5293.8835 60.834834 -5292.4413 65.004804 -5288.292 L 65.000094 -5288.2836 C 77.16716 -5275.197 81.57796 -5266.615 82.32442 -5244.265 C 84.20311 -5248.544 84.94513 -5253.163 84.26327 -5258.155 L 88.4019 -5243.239 C 87.48752 -5238.9467 85.3959 -5234.857 82.37248 -5230.9775 C 81.59019 -5200.3874 74.36157 -5165.934 62.88873 -5133.094 C 77.94543 -5108.815 94.58211 -5087.057 112.34835 -5067.839 C 132.73828 -5066.3015 153.13252 -5060.902 177.70784 -5052.481 L 177.7295 -5052.5094 C 197.89199 -5044.712 204.00175 -5044.019 215.40836 -5042.062 C 270.03534 -5032.691 314.87387 -5071.297 326.25683 -5118.5714 C 331.40513 -5139.952 339.81107 -5157.9375 353.04126 -5163.835 L 368.49174 -5162.8883 C 349.19513 -5161.464 339.65214 -5140.6434 334.5968 -5115.9387 C 323.66975 -5062.538 278.19884 -5022.6815 222.8775 -5026.0954 C 197.28408 -5027.6746 199.81824 -5029.1656 166.62016 -5037.8476 L 166.69178 -5037.942 C 156.60198 -5041.05 146.42175 -5043.244 135.90503 -5044.415 Z M 490.3045 -5823.532 C 490.3351 -5820.597 490.3504 -5817.635 490.3504 -5814.6464 L 554.9903 -5814.6464 C 554.7197 -5814.8324 554.4383 -5815.025 554.1453 -5815.2245 L 554.17687 -5815.243 C 541.8463 -5824.468 526.0252 -5827.6974 496.11895 -5824.2706 C 494.2007 -5824.051 492.26196 -5823.8045 490.3045 -5823.532 Z M 606.45656 -5814.6464 L 719.0054 -5814.6464 C 716.4551 -5858.8046 714.1035 -5888.509 714.1035 -5888.509 C 694.7407 -6065.602 617.6811 -6196.394 495.2318 -6250.6365 C 416.881 -6218.49 333.52543 -6153.6516 226.3065 -6037.6336 C 139.5567 -5943.765 53.132165 -5830.86 -28.823477 -5707.139 C -29.448325 -5685.393 -29.977283 -5661.1715 -30.36995 -5634.2126 C 38.44731 -5668.698 115.0724 -5697.327 191.4284 -5716.8514 C 193.1584 -5770.905 195.80163 -5812.163 195.80163 -5812.163 C 207.92 -5985.317 275.98206 -6071.293 353.48597 -6071.293 C 436.60835 -6071.293 486.85447 -5992.317 490.17484 -5831.8875 C 493.7196 -5832.2445 497.2223 -5832.5295 500.67644 -5832.7396 C 532.542 -5834.6784 542.63857 -5831.162 559.03325 -5818.039 L 559.0428 -5818.0446 C 560.78695 -5816.528 562.1068 -5815.4664 563.2288 -5814.6464 L 602.07674 -5814.6464 C 604.5566 -5816.4806 606.7801 -5818.632 608.6444 -5821.0264 C 612.69586 -5826.2305 617.2434 -5830.2056 621.66335 -5830.475 L 625.86794 -5828.696 C 620.2982 -5830.221 615.0863 -5825.601 610.6548 -5819.4994 C 609.3874 -5817.7544 607.9798 -5816.1325 606.45656 -5814.6464 Z M 421.7519 -6272.856 C 401.5663 -6276.416 380.4723 -6278.242 358.5076 -6278.242 C 305.53546 -6278.242 253.8968 -6266.557 206.65352 -6243.6745 C 203.08515 -6185.582 195.03312 -6128.919 182.6755 -6077.197 C 193.00687 -6087.734 203.36163 -6098.078 213.7357 -6108.219 C 300.515 -6193.053 362.376 -6243.089 421.7519 -6272.856 Z M 168.12157 -6221.864 C 73.23807 -6159.866 2.1805395 -6047.681 -15.461615 -5890.012 C -15.461615 -5890.012 -18.54978 -5879.261 -21.98368 -5839.937 C 17.891073 -5891.793 58.60609 -5941.3646 99.88763 -5988.1064 C 107.49826 -6000.555 114.86678 -6015.1425 121.88893 -6031.887 C 143.90435 -6084.3826 159.4648 -6150.8054 168.12158 -6221.864 Z M 30.28387 -5195.5755 C 37.86349 -5178.115 46.18244 -5161.6103 55.1345 -5146.0664 C 64.5452 -5171.863 71.24663 -5198.504 73.78298 -5222.3434 L 73.78298 -5222.3434 C 67.190464 -5216.9263 58.87059 -5212.0124 49.695887 -5207.629 C 42.800607 -5204.334 36.28655 -5200.276 30.283863 -5195.5756 Z" fill="#4c4c4c"/>
        </g>
        <g id="Graphic_1882">
          <path d="M 953.62 -5128.812 C 1023.5787 -5016.828 1126.9911 -4959.834 1220.0478 -4959.834 C 1426.5513 -4959.834 1554.143 -5087.763 1597.1735 -5385.142 C 1597.1735 -5385.142 1610.512 -5497.6965 1610.512 -5622.223 C 1610.512 -5746.7494 1599.2894 -5888.509 1599.2894 -5888.509 C 1573.4894 -6124.477 1445.2526 -6278.2416 1243.6935 -6278.2416 L 1243.6935 -6278.2416 L 1243.6935 -6278.242 C 1063.078 -6278.242 904.4658 -6142.4005 876.225 -5890.012 C 876.225 -5890.012 861.424 -5766.629 861.424 -5637.1325 C 861.424 -5507.636 873.6319 -5385.142 873.6319 -5385.142 C 880.572 -5303.4485 900.2504 -5233.295 928.3157 -5174.8797 C 983.8768 -5287.3494 992.8407 -5361.12 972.2172 -5432.482 L 972.0706 -5432.375 C 959.6702 -5483.4144 957.3207 -5479.576 955.5875 -5518.787 C 952.109 -5597.4716 1005.4773 -5662.167 1078.7644 -5683.2724 C 1080.0634 -5752.7474 1083.3804 -5812.163 1083.3804 -5812.163 C 1095.4988 -5985.317 1161.168 -6071.293 1238.6719 -6071.293 C 1325.1629 -6071.293 1377.7977 -5974.052 1388.8688 -5812.163 C 1388.8688 -5812.163 1393.6845 -5706.656 1393.6845 -5621.223 C 1393.6845 -5535.79 1387.9608 -5458.5704 1387.9608 -5458.5704 C 1374.4595 -5245.564 1317.138 -5166.7826 1228.5253 -5166.7826 C 1164.9508 -5166.7826 1088.8224 -5264.3396 1082.2676 -5458.5704 C 1082.2676 -5458.5704 1078.2516 -5542.609 1078.2516 -5631.452 C 1078.2516 -5643.72 1078.3494 -5656.0454 1078.518 -5668.179 C 1015.9005 -5644.6965 968.229 -5582.3996 979.8239 -5506.9296 C 982.5139 -5489.42 983.4113 -5480.051 994.8063 -5448.9854 L 994.7619 -5448.953 C 1029.0822 -5342.791 1027.8739 -5287.6414 960.2594 -5142.795 C 958.0861 -5138.139 955.8727 -5133.478 953.62 -5128.812 Z" fill="#4c4c4c"/>
        </g>
        <g id="Graphic_1870">
          <path d="M 1979.148 -5148.0586 L 1979.148 -6607.8785 L 1736.4653 -6607.8785 L 1736.4653 -5148.0586 L 1736.4653 -4959.834 L 1979.148 -4959.834 L 2375.2904 -4959.834 L 2375.2904 -5148.0586 Z" fill="#c6e443"/>
        </g>
        <g id="Graphic_1869">
          <path d="M 2956.6247 -5654.0635 C 2956.731 -5645.1706 2956.7902 -5641.104 2956.7902 -5632.1627 C 2956.7902 -5543.32 2956.7902 -5355.259 2956.7902 -5355.259 C 2956.7902 -5307.521 2875.3617 -5197.336 2797.1705 -5181.022 C 2596.8237 -5158.412 2637.1547 -5365.687 2646.4103 -5388.2225 C 2669.411 -5444.224 2694.433 -5488.6645 2917.1955 -5630.2056 Z M 2598.4774 -5597.206 C 2379.062 -5455.566 2429.7918 -5195.1495 2429.7918 -5195.1495 C 2443.2655 -5105.8335 2524.199 -4942.0383 2735.2677 -4984.3357 C 2871.2942 -5024.579 2896.246 -5115.313 2967.3366 -5250.258 L 2990.4955 -4964.404 L 3235.3685 -4964.404 C 3180.568 -5143.5294 3170.5135 -5202.213 3170.5135 -5202.213 L 3159.771 -5892.096 C 3159.771 -6155.2906 2968.8596 -6278.242 2788.244 -6278.242 C 2586.685 -6278.242 2458.4482 -6124.477 2432.648 -5888.509 C 2432.648 -5888.509 2430.2965 -5858.8046 2427.7463 -5814.6464 L 2656.4012 -5814.6464 C 2656.4012 -5944.643 2690.864 -6087.7196 2801.6698 -6085.344 C 2901.4733 -6083.205 2950.95 -5980.774 2950.95 -5812.163 C 2950.95 -5812.163 2951.35 -5805.922 2951.9403 -5795.115 C 2951.9403 -5795.115 2695.285 -5662.674 2598.4774 -5597.206 Z" fill="#c6e443"/>
        </g>
        <g id="Graphic_1868">
          <path d="M 3550.9403 -5116.8016 C 3572.3934 -5082.1334 3587.301 -5058.34 3587.301 -5058.34 C 3679.3777 -4951.552 3773.8907 -4960.2085 3829.3677 -4959.834 C 3929.8504 -4959.834 4108.8617 -5071.3606 4112.9915 -5350.1975 C 4112.9915 -5350.1975 4117.8743 -5406.6844 4123.179 -5610.098 C 4123.179 -5791.167 4120.178 -5826.6 4120.178 -5826.6 C 4117.534 -6042.666 4071.403 -6285.09 3841.8013 -6278.2416 C 3726.181 -6278.2416 3596.0027 -6188.053 3550.9415 -5981.569 L 3550.9415 -6607.8785 L 3336.5814 -6607.8785 L 3336.5814 -5148.0586 L 3336.5814 -4959.834 L 3550.9403 -4959.834 Z M 3550.9415 -5746.112 L 3550.9415 -5746.114 C 3550.9415 -5889.128 3632.9286 -6023.9505 3743.391 -6023.9505 C 3842.8856 -6023.9505 3897.6315 -5939.517 3897.6315 -5743.7155 C 3897.6315 -5743.7155 3901.307 -5659.748 3901.307 -5576.5864 C 3901.307 -5493.425 3898.7296 -5412.7345 3898.7296 -5412.7345 C 3898.7296 -5179.099 3827.0073 -5146.304 3755.1714 -5146.304 C 3639.546 -5146.304 3551.421 -5254.3276 3551.421 -5379.8406 L 3550.9403 -5379.8406 Z" fill="#c6e443"/>
        </g>
      </g>
    </g>
  </g>
</svg>
