<?xml version="1.0" encoding="UTF-8" standalone="no"?>
<!DOCTYPE svg PUBLIC "-//W3C//DTD SVG 1.1//EN" "http://www.w3.org/Graphics/SVG/1.1/DTD/svg11.dtd">
<svg xmlns:dc="http://purl.org/dc/elements/1.1/" version="1.1" xmlns="http://www.w3.org/2000/svg" xmlns:xl="http://www.w3.org/1999/xlink" viewBox="-2085.9677 -10030.003 1302.8563 402.0026" width="1302.8563" height="402.0026">
  <defs>
    <linearGradient x1="0" x2="1" id="Gradient" gradientUnits="userSpaceOnUse">
      <stop offset="0" stop-color="#4c4c4c"/>
      <stop offset="1" stop-color="#c1c1c1"/>
    </linearGradient>
    <linearGradient id="Obj_Gradient" xl:href="#Gradient" gradientTransform="translate(-1747.3638 -9958.566) rotate(90) scale(330.56624)"/>
    <linearGradient x1="0" x2="1" id="Gradient_2" gradientUnits="userSpaceOnUse">
      <stop offset="0" stop-color="#4c4c4c"/>
      <stop offset=".5586257" stop-color="#8a8a8a"/>
      <stop offset="1" stop-color="#c1c1c1"/>
    </linearGradient>
    <linearGradient id="Obj_Gradient_2" xl:href="#Gradient_2" gradientTransform="translate(-1970.0724 -10030.003) rotate(90) scale(345.80676)"/>
    <linearGradient id="Obj_Gradient_3" xl:href="#Gradient" gradientTransform="translate(-1576.0312 -9960.835) rotate(90) scale(276.63956)"/>
    <linearGradient id="Obj_Gradient_4" xl:href="#Gradient" gradientTransform="translate(-1388.9308 -9960.835) rotate(90) scale(276.63956)"/>
  </defs>
  <metadata> Produced by OmniGraffle 7.19.4\n2022-02-08 19:44:57 +0000</metadata>
  <g id="Canvas_3" stroke-opacity="1" stroke-dasharray="none" fill-opacity="1" fill="none" stroke="none">
    <title>Canvas 3</title>
    <g id="Canvas_3_Layer_1">
      <title>Layer 1</title>
      <g id="Group_1901">
        <g id="Group_1885">
          <g id="Graphic_1892">
            <path d="M -1835.095 -9958.566 L -1776.7618 -9958.566 L -1747.3861 -9776.35 L -1715.3377 -9958.104 L -1659.6326 -9958.566 C -1659.6326 -9958.566 -1710.6445 -9711.457 -1720.4751 -9678.933 C -1720.4751 -9678.933 -1724.6374 -9656.191 -1749.1301 -9639.409 C -1773.6228 -9622.627 -1822.355 -9629.316 -1822.355 -9629.316 L -1821.7772 -9677.043 C -1821.7772 -9677.043 -1790.1092 -9673.29 -1780.2764 -9684.998 C -1770.4436 -9696.705 -1776.2991 -9716.816 -1776.2991 -9716.816 Z" fill="url(#Obj_Gradient)"/>
          </g>
          <g id="Graphic_1891">
            <path d="M -2085.9677 -10030.003 L -2015.6314 -10030.003 L -1970.1254 -9791.947 L -1924.3408 -10030.003 L -1854.1771 -10030.003 L -1854.1771 -9684.196 L -1903.7724 -9684.196 L -1901.526 -9952.321 L -1949.137 -9684.196 L -1989.2306 -9684.196 L -2036.8417 -9952.321 L -2031.83 -9684.458 L -2085.9677 -9684.196 Z" fill="url(#Obj_Gradient_2)"/>
          </g>
          <g id="Graphic_1890">
            <path d="M -1498.0647 -9781.471 L -1546.2343 -9781.471 C -1546.2343 -9738.571 -1556.6803 -9727.62 -1574.8297 -9727.62 C -1593.0806 -9727.415 -1606.0455 -9748.09 -1607.4209 -9788.845 C -1607.4209 -9788.845 -1608.4128 -9806.628 -1608.4128 -9825.27 C -1608.4128 -9843.911 -1607.1874 -9863.039 -1607.1874 -9863.039 C -1604.6446 -9899.371 -1590.3632 -9917.412 -1574.1007 -9917.412 C -1556.0454 -9917.412 -1545.3826 -9899.653 -1545.3826 -9863.56 L -1497.4043 -9863.56 C -1497.9394 -9872.826 -1498.4328 -9879.058 -1498.4328 -9879.058 C -1503.8464 -9928.571 -1530.7542 -9960.835 -1573.047 -9960.835 C -1610.9453 -9960.835 -1645.5907 -9932.332 -1651.5164 -9879.374 C -1651.5164 -9879.374 -1654.0227 -9870.648 -1654.658 -9824.753 C -1653.5301 -9779.155 -1651.568 -9773.438 -1651.568 -9773.438 C -1646.5618 -9714.509 -1609.0955 -9684.196 -1578.0086 -9684.196 C -1534.6782 -9684.196 -1507.9059 -9711.039 -1498.8768 -9773.438 C -1498.8768 -9773.438 -1498.5218 -9776.433 -1498.0647 -9781.471 Z" fill="url(#Obj_Gradient_3)"/>
          </g>
          <g id="Graphic_1889">
            <path d="M -1387.3097 -9960.835 L -1387.3097 -9960.835 C -1425.208 -9960.835 -1458.4894 -9932.332 -1464.4151 -9879.374 C -1464.4151 -9879.374 -1467.5208 -9853.484 -1467.5208 -9826.312 C -1467.5208 -9799.14 -1464.9592 -9773.438 -1464.9592 -9773.438 C -1459.953 -9714.509 -1423.3583 -9684.196 -1392.2713 -9684.196 C -1348.941 -9684.196 -1322.1686 -9711.039 -1313.1396 -9773.438 C -1313.1396 -9773.438 -1310.3407 -9797.055 -1310.3407 -9823.184 C -1310.3407 -9849.313 -1312.6956 -9879.058 -1312.6956 -9879.058 C -1318.1092 -9928.571 -1345.0169 -9960.835 -1387.3097 -9960.835 Z M -1388.3634 -9917.412 C -1370.2151 -9917.412 -1359.1709 -9897.008 -1356.8478 -9863.039 C -1356.8478 -9863.039 -1355.8374 -9840.9 -1355.8374 -9822.974 C -1355.8374 -9805.048 -1357.0383 -9788.845 -1357.0383 -9788.845 C -1359.8713 -9744.15 -1371.899 -9727.62 -1390.4925 -9727.62 C -1403.8322 -9727.62 -1419.8061 -9748.09 -1421.1815 -9788.845 C -1421.1815 -9788.845 -1422.0242 -9806.479 -1422.0242 -9825.12 C -1422.0242 -9843.762 -1420.948 -9863.039 -1420.948 -9863.039 C -1418.4052 -9899.371 -1404.626 -9917.412 -1388.3634 -9917.412 Z" fill="url(#Obj_Gradient_4)"/>
          </g>
        </g>
        <g id="Group_1893">
          <g id="Graphic_1900">
            <path d="M -1749.8551 -9638.923 C -1749.6112 -9639.083 -1749.3695 -9639.244 -1749.1301 -9639.408 C -1724.6374 -9656.19 -1720.4751 -9678.933 -1720.4751 -9678.933 C -1717.39 -9689.14 -1710.249 -9720.48 -1701.9017 -9758.685 C -1722.2444 -9718.27 -1739.0327 -9676.754 -1749.8551 -9638.923 Z M -1689.4086 -9816.652 C -1674.2922 -9887.553 -1659.6326 -9958.566 -1659.6326 -9958.566 L -1686.9757 -9958.339 C -1686.5788 -9955.041 -1686.2396 -9951.205 -1685.9233 -9946.654 C -1683.0052 -9904.67 -1688.1383 -9846.8 -1697.6378 -9803.481 C -1694.9307 -9807.908 -1692.1868 -9812.3 -1689.4086 -9816.652 Z M -1689.8728 -9958.315 L -1715.3377 -9958.103 L -1747.3861 -9776.349 L -1759.7691 -9853.161 C -1761.2094 -9851.819 -1762.5722 -9850.057 -1763.9508 -9847.743 C -1768.3146 -9840.417 -1770.6892 -9830.274 -1770.8206 -9820.501 C -1758.184 -9784.217 -1749.828 -9745.398 -1747.0676 -9709.697 C -1736.4768 -9733.387 -1724.448 -9757.136 -1711.3384 -9780.231 C -1709.7266 -9783.88 -1708.0739 -9788.411 -1706.4051 -9793.839 C -1694.8455 -9831.435 -1686.8942 -9897.775 -1688.6452 -9942.014 C -1688.9 -9948.454 -1689.304 -9953.809 -1689.8728 -9958.315 Z M -1760.1459 -9855.498 L -1776.7618 -9958.566 L -1835.095 -9958.566 L -1826.6895 -9924.005 C -1822.6213 -9919.446 -1818.3162 -9913.824 -1813.4014 -9906.799 C -1798.049 -9884.855 -1784.6972 -9858.084 -1774.0212 -9829.39 C -1772.5455 -9836.84 -1769.7725 -9843.94 -1765.7854 -9849.596 C -1763.734 -9852.507 -1762.0787 -9854.289 -1760.1459 -9855.498 Z M -1821.5205 -9902.751 L -1776.2991 -9716.815 C -1776.2991 -9716.815 -1770.4436 -9696.704 -1780.2764 -9684.997 C -1790.1092 -9673.29 -1821.7772 -9677.043 -1821.7772 -9677.043 L -1821.8911 -9667.63 C -1813.4593 -9655.144 -1805.8132 -9641.683 -1799.3225 -9628 C -1792.5237 -9628.024 -1784.8613 -9628.424 -1777.2651 -9629.585 C -1776.1223 -9633.372 -1774.9278 -9637.183 -1773.6831 -9641.015 L -1773.7101 -9641.103 C -1773.6478 -9641.236 -1773.5858 -9641.37 -1773.524 -9641.504 C -1771.9464 -9646.347 -1770.2889 -9651.224 -1768.555 -9656.128 C -1767.2738 -9661.301 -1766.2434 -9667.07 -1765.4905 -9673.43 C -1757.8827 -9737.688 -1781.4784 -9838.012 -1818.193 -9897.509 C -1819.316 -9899.329 -1820.4245 -9901.075 -1821.5205 -9902.751 Z M -1810.1285 -9628.267 C -1813.739 -9636.301 -1817.7558 -9644.289 -1822.08 -9652.032 L -1822.355 -9629.315 C -1822.355 -9629.315 -1817.5191 -9628.652 -1810.1285 -9628.267 Z" fill="#4c4c4c"/>
          </g>
          <g id="Graphic_1899">
            <path d="M -1854.1771 -9942.313 L -1854.1771 -10030.002 L -1924.3408 -10030.002 L -1950.965 -9891.571 C -1943.321 -9895.724 -1941.2792 -9904.85 -1944.2386 -9912.008 C -1945.6097 -9915.324 -1946.225 -9918.504 -1945.044 -9920.552 L -1942.9137 -9921.909 C -1945.3244 -9919.87 -1944.5873 -9916.206 -1942.8852 -9912.46 C -1939.206 -9904.362 -1941.3859 -9894.74 -1949.0163 -9889.885 C -1950.1564 -9889.159 -1950.9084 -9888.714 -1951.5796 -9888.375 L -1970.1254 -9791.947 L -1982.3986 -9856.152 C -1996.19 -9824.196 -2002.2955 -9777.092 -1996.05 -9747.07 C -1995.3928 -9743.911 -1994.6235 -9741.059 -1993.7551 -9738.514 C -1982.8414 -9719.978 -1971.1093 -9701.711 -1958.8758 -9684.195 L -1949.137 -9684.195 L -1936.0078 -9758.134 C -1936.1475 -9758.137 -1936.3048 -9758.142 -1936.487 -9758.15 C -1939.6488 -9758.287 -1941.993 -9760.821 -1942.2948 -9763.919 C -1942.4344 -9765.352 -1942.852 -9766.591 -1943.9393 -9766.787 L -1943.0563 -9766.749 C -1942.3402 -9766.335 -1941.9702 -9765.263 -1941.8055 -9764.019 C -1941.4413 -9761.266 -1939.1255 -9758.806 -1935.9676 -9759.012 C -1935.9275 -9759.015 -1935.8886 -9759.017 -1935.8505 -9759.02 L -1901.526 -9952.321 L -1903.3074 -9739.698 C -1900.071 -9735.566 -1897.292 -9731.21 -1895.2596 -9726.999 C -1892.7899 -9740.95 -1888.5683 -9746.857 -1879.0906 -9755.121 L -1879.0935 -9755.128 C -1875.5612 -9757.974 -1874.7943 -9759.011 -1873.242 -9760.879 C -1865.808 -9769.822 -1868.119 -9782.02 -1875.5154 -9789.049 C -1878.8606 -9792.227 -1881.247 -9795.642 -1880.9306 -9798.665 L -1879.1375 -9801.373 C -1880.9032 -9797.717 -1878.121 -9793.798 -1874.162 -9790.288 C -1865.6047 -9782.7 -1863.1326 -9770.255 -1869.557 -9760.561 C -1872.529 -9756.076 -1872.5341 -9756.693 -1877.5947 -9751.571 L -1877.6044 -9751.594 C -1883.9746 -9745.678 -1887.935 -9738.034 -1889.8358 -9725.26 C -1878.071 -9724.75 -1870.7936 -9721.31 -1856.6026 -9708.522 C -1855.7919 -9707.791 -1854.9833 -9707.047 -1854.1771 -9706.291 L -1854.1771 -9935.55 C -1857.6029 -9937.218 -1861.117 -9938.457 -1864.7878 -9939.364 L -1864.7838 -9939.326 C -1875.3595 -9942.428 -1874.9084 -9941.598 -1882.2156 -9945.397 C -1898.0105 -9953.608 -1903.9358 -9972.103 -1898.1106 -9988.612 C -1895.4157 -9996.249 -1894.5988 -10003.56 -1899.6756 -10007.144 L -1895.2654 -10004.849 C -1892.5987 -10001.036 -1893.2596 -9994.695 -1895.379 -9987.957 C -1900.0654 -9973.059 -1894.1073 -9955.013 -1877.5182 -9948.557 C -1874.0542 -9947.209 -1872.2575 -9946.389 -1865.4169 -9945.2 L -1865.4156 -9945.189 C -1861.291 -9944.306 -1857.5884 -9943.387 -1854.1771 -9942.313 Z M -1903.4527 -9722.353 L -1903.7724 -9684.195 L -1897.2034 -9684.195 C -1897.8708 -9695.514 -1897.7232 -9706.48 -1896.652 -9716.71 C -1896.551 -9717.677 -1896.4469 -9718.613 -1896.3394 -9719.521 C -1896.457 -9720.237 -1896.628 -9721.002 -1896.8548 -9721.815 C -1900.206 -9721.954 -1901.2317 -9721.894 -1903.4527 -9722.353 Z M -1983.9189 -9864.105 L -1988.3483 -9887.276 C -1992.0933 -9874.875 -1993.4226 -9858.85 -1991.293 -9848.277 C -1989.0491 -9853.852 -1986.5864 -9859.161 -1983.9189 -9864.105 Z M -1989.063 -9891.015 L -2015.6314 -10030.002 L -2059.898 -10030.002 C -2049.9704 -10017.124 -2045.0968 -10000.645 -2048.3176 -9984.574 C -2050.6391 -9972.989 -2051.1335 -9974.346 -2057.0615 -9960.167 L -2057.0985 -9960.212 C -2067.2385 -9938.752 -2067.2832 -9913.253 -2053.0108 -9867.309 C -2048.052 -9851.346 -2041.7364 -9834.63 -2034.3202 -9817.553 L -2036.8417 -9952.321 L -2006.447 -9781.15 C -2004.9717 -9801.578 -2000.5291 -9823.118 -1993.634 -9842.149 C -1994.1812 -9844.145 -1994.642 -9846.379 -1994.9033 -9848.666 C -1996.3626 -9861.437 -1994.105 -9878.311 -1989.063 -9891.015 Z M -2066.045 -10030.002 L -2085.9677 -10030.002 L -2085.9677 -9969.719 C -2079.5254 -9964.156 -2074.1419 -9957.31 -2070.8908 -9950.281 C -2070.7975 -9950.08 -2070.7062 -9949.876 -2070.617 -9949.672 C -2068.6162 -9955.23 -2065.9994 -9960.9 -2062.7904 -9967.143 L -2062.8016 -9967.156 C -2058.0913 -9975.446 -2057.398 -9978.171 -2055.8126 -9983.174 C -2050.5533 -9999.768 -2055.7114 -10017.141 -2066.045 -10030.002 Z M -2085.9677 -9964.001 L -2085.9677 -9880.855 C -2078.2764 -9875.37 -2071.1142 -9869.531 -2064.7776 -9863.531 C -2065.6085 -9866.514 -2066.4017 -9869.481 -2067.1562 -9872.43 C -2075.4205 -9904.733 -2077.3252 -9923.012 -2073.5137 -9939.843 C -2073.6163 -9941.616 -2073.9881 -9943.566 -2074.652 -9945.674 C -2076.6028 -9951.869 -2080.736 -9958.345 -2085.9677 -9964.001 Z M -2085.9677 -9870.872 L -2085.9677 -9788.405 C -2067.928 -9776.919 -2049.628 -9763.808 -2033.067 -9750.572 L -2033.608 -9779.492 C -2042.7364 -9799.577 -2050.717 -9819.599 -2057.274 -9839.14 C -2058.7376 -9841.829 -2060.6154 -9844.699 -2062.9214 -9847.731 C -2068.785 -9855.443 -2076.759 -9863.344 -2085.9677 -9870.872 Z M -2085.9677 -9783.836 L -2085.9677 -9720.098 C -2083.002 -9719.629 -2081.095 -9717.245 -2081.4705 -9713.6 C -2081.6826 -9711.54 -2081.79 -9711.702 -2082.5817 -9708.861 L -2082.5888 -9708.864 C -2083.9886 -9704.444 -2083.5821 -9700.436 -2080.375 -9694.702 C -2078.348 -9691.078 -2075.5066 -9687.528 -2072.1548 -9684.262 L -2031.83 -9684.458 L -2032.9418 -9743.882 C -2048.9763 -9757.484 -2067.6343 -9771.538 -2085.9677 -9783.836 Z M -1992.1622 -9700.705 L -1989.2306 -9684.195 L -1982.0294 -9684.195 C -1985.4661 -9689.653 -1988.8458 -9695.159 -1992.1622 -9700.705 Z M -2085.9677 -9719.167 L -2085.9677 -9684.195 L -2076.7013 -9684.24 C -2079.2138 -9687.345 -2081.3268 -9690.644 -2082.8972 -9694.039 C -2085.8763 -9700.48 -2085.7633 -9703.319 -2083.6828 -9709.363 L -2083.685 -9709.364 C -2083.0075 -9711.153 -2082.9322 -9711.653 -2082.74 -9712.603 C -2082.031 -9716.109 -2083.5614 -9718.429 -2085.9677 -9719.167 Z M -1854.1771 -9697.582 C -1854.5008 -9697.935 -1854.8247 -9698.286 -1855.149 -9698.634 C -1857.0814 -9696.49 -1859.0044 -9693.654 -1861.0604 -9689.895 C -1862.0444 -9688.096 -1862.9877 -9686.19 -1863.8868 -9684.195 L -1854.1771 -9684.195 Z M -1889.9716 -9684.195 L -1867.4747 -9684.195 C -1866.0047 -9687.236 -1864.4292 -9690.12 -1862.7563 -9692.799 C -1860.5773 -9696.289 -1858.7816 -9698.754 -1856.9905 -9700.576 L -1856.9905 -9700.576 C -1857.4224 -9701.023 -1857.8547 -9701.466 -1858.2875 -9701.904 C -1871.134 -9714.895 -1880.5578 -9720.275 -1890.3253 -9721.449 C -1890.614 -9718.813 -1890.8286 -9715.978 -1890.9717 -9712.92 C -1891.3908 -9703.959 -1891.022 -9694.259 -1889.9716 -9684.195 Z M -1903.425 -9725.662 C -1901.6498 -9725.402 -1900.4723 -9725.198 -1898.0265 -9725.226 C -1899.3003 -9728.394 -1901.137 -9731.779 -1903.3456 -9735.139 Z" fill="#4c4c4c"/>
          </g>
          <g id="Graphic_1898">
            <path d="M -1619.7554 -9701.943 C -1606.8448 -9690.16 -1591.799 -9684.195 -1578.0086 -9684.195 C -1534.6782 -9684.195 -1507.9059 -9711.038 -1498.8768 -9773.437 C -1498.8768 -9773.437 -1498.5218 -9776.433 -1498.0647 -9781.471 L -1546.2343 -9781.471 C -1546.2343 -9738.571 -1556.6803 -9727.619 -1574.8297 -9727.619 C -1593.0806 -9727.415 -1606.0455 -9748.089 -1607.4209 -9788.844 C -1607.4209 -9788.844 -1608.4128 -9806.627 -1608.4128 -9825.269 C -1608.4128 -9829.001 -1608.3637 -9832.752 -1608.2851 -9836.366 C -1624.461 -9831.372 -1640.6576 -9824.403 -1654.4306 -9816.433 C -1653.2857 -9778.442 -1651.568 -9773.437 -1651.568 -9773.437 C -1650.3526 -9759.13 -1647.224 -9746.511 -1642.738 -9735.602 C -1641.4941 -9736.437 -1640.1603 -9737.171 -1638.7487 -9737.787 C -1636.3014 -9738.854 -1634.107 -9740.113 -1632.604 -9741.615 C -1632.3199 -9747.045 -1633.165 -9749.944 -1635.1358 -9752.201 L -1635.139 -9752.195 C -1636.363 -9753.725 -1636.3818 -9753.558 -1637.0586 -9754.857 C -1638.5214 -9757.663 -1637.4984 -9760.96 -1634.9668 -9762.771 C -1633.7955 -9763.608 -1632.9311 -9764.589 -1633.305 -9765.629 L -1632.8968 -9764.845 C -1632.8971 -9764.018 -1633.64 -9763.162 -1634.6358 -9762.397 C -1636.8373 -9760.705 -1637.8097 -9757.47 -1636.0523 -9754.838 C -1635.6853 -9754.288 -1635.5073 -9753.986 -1634.6323 -9753.115 L -1634.6333 -9753.113 C -1632.0803 -9750.367 -1631.1548 -9748.567 -1630.9981 -9743.877 C -1630.604 -9744.775 -1630.4482 -9745.744 -1630.5913 -9746.791 L -1629.7229 -9743.662 C -1629.9148 -9742.761 -1630.3536 -9741.903 -1630.988 -9741.089 C -1631.1522 -9734.67 -1632.669 -9727.441 -1635.0763 -9720.55 C -1631.917 -9715.456 -1628.4261 -9710.89 -1624.6983 -9706.858 C -1620.4199 -9706.535 -1616.1406 -9705.402 -1610.984 -9703.635 L -1610.9794 -9703.641 C -1606.7488 -9702.005 -1605.4668 -9701.86 -1603.0733 -9701.449 C -1591.611 -9699.483 -1582.2026 -9707.583 -1579.8141 -9717.503 C -1578.7339 -9721.989 -1576.97 -9725.763 -1574.194 -9727 L -1570.952 -9726.802 C -1575.001 -9726.503 -1577.0034 -9722.134 -1578.0642 -9716.95 C -1580.357 -9705.746 -1589.898 -9697.382 -1601.506 -9698.099 C -1606.8763 -9698.43 -1606.3446 -9698.743 -1613.3105 -9700.565 L -1613.2954 -9700.585 C -1615.4126 -9701.237 -1617.5487 -9701.697 -1619.7554 -9701.943 Z M -1545.3923 -9865.424 C -1545.3858 -9864.808 -1545.3826 -9864.186 -1545.3826 -9863.559 L -1531.8193 -9863.559 C -1531.8761 -9863.598 -1531.9352 -9863.639 -1531.9966 -9863.681 L -1531.99 -9863.684 C -1534.5773 -9865.62 -1537.897 -9866.298 -1544.1722 -9865.579 C -1544.5747 -9865.533 -1544.9815 -9865.481 -1545.3923 -9865.424 Z M -1521.0202 -9863.559 L -1497.4043 -9863.559 C -1497.9394 -9872.825 -1498.4328 -9879.058 -1498.4328 -9879.058 C -1502.4957 -9916.217 -1518.665 -9943.661 -1544.3584 -9955.042 C -1560.7986 -9948.297 -1578.289 -9934.692 -1600.7866 -9910.348 C -1618.9892 -9890.652 -1637.1235 -9866.961 -1654.3201 -9841.001 C -1654.4512 -9836.438 -1654.5622 -9831.356 -1654.6446 -9825.699 C -1640.2048 -9832.935 -1624.1267 -9838.942 -1608.105 -9843.039 C -1607.742 -9854.381 -1607.1874 -9863.038 -1607.1874 -9863.038 C -1604.6446 -9899.371 -1590.3632 -9917.411 -1574.1007 -9917.411 C -1556.6592 -9917.411 -1546.1162 -9900.84 -1545.4195 -9867.177 C -1544.6757 -9867.252 -1543.9407 -9867.312 -1543.216 -9867.356 C -1536.5296 -9867.763 -1534.411 -9867.025 -1530.971 -9864.271 L -1530.969 -9864.272 C -1530.603 -9863.954 -1530.326 -9863.731 -1530.0907 -9863.559 L -1521.9393 -9863.559 C -1521.4189 -9863.944 -1520.9523 -9864.396 -1520.5612 -9864.898 C -1519.711 -9865.99 -1518.7568 -9866.824 -1517.8294 -9866.88 L -1516.9472 -9866.507 C -1518.1159 -9866.827 -1519.2095 -9865.858 -1520.1393 -9864.578 C -1520.4053 -9864.211 -1520.7006 -9863.871 -1521.0202 -9863.559 Z M -1559.7766 -9959.705 C -1564.012 -9960.452 -1568.4382 -9960.835 -1573.047 -9960.835 C -1584.162 -9960.835 -1594.9973 -9958.383 -1604.9103 -9953.582 C -1605.659 -9941.392 -1607.3486 -9929.503 -1609.9416 -9918.65 C -1607.7738 -9920.861 -1605.601 -9923.031 -1603.4243 -9925.159 C -1585.2155 -9942.96 -1572.2353 -9953.459 -1559.7766 -9959.705 Z M -1612.9954 -9949.005 C -1632.9047 -9935.996 -1647.8146 -9912.457 -1651.5164 -9879.373 C -1651.5164 -9879.373 -1652.1644 -9877.117 -1652.885 -9868.866 C -1644.518 -9879.747 -1635.975 -9890.148 -1627.3129 -9899.956 C -1625.716 -9902.568 -1624.1698 -9905.629 -1622.6964 -9909.143 C -1618.0769 -9920.158 -1614.8119 -9934.095 -1612.9954 -9949.005 Z M -1641.9177 -9733.66 C -1640.3273 -9729.997 -1638.5817 -9726.534 -1636.7033 -9723.272 C -1634.7287 -9728.685 -1633.3226 -9734.275 -1632.7904 -9739.277 L -1632.7904 -9739.277 C -1634.1737 -9738.141 -1635.9194 -9737.11 -1637.8445 -9736.19 C -1639.2914 -9735.498 -1640.6582 -9734.647 -1641.9177 -9733.66 Z" fill="#4c4c4c"/>
          </g>
          <g id="Graphic_1897">
            <path d="M -1448.1754 -9719.652 C -1433.4961 -9696.154 -1411.7972 -9684.195 -1392.2713 -9684.195 C -1348.941 -9684.195 -1322.1686 -9711.038 -1313.1396 -9773.437 C -1313.1396 -9773.437 -1310.3407 -9797.054 -1310.3407 -9823.183 C -1310.3407 -9849.313 -1312.6956 -9879.058 -1312.6956 -9879.058 C -1318.1092 -9928.571 -1345.0169 -9960.835 -1387.3097 -9960.835 L -1387.3097 -9960.835 L -1387.3097 -9960.835 C -1425.208 -9960.835 -1458.4894 -9932.331 -1464.4151 -9879.373 C -1464.4151 -9879.373 -1467.5208 -9853.484 -1467.5208 -9826.312 C -1467.5208 -9799.14 -1464.9592 -9773.437 -1464.9592 -9773.437 C -1463.503 -9756.295 -1459.3739 -9741.575 -1453.485 -9729.318 C -1441.8267 -9752.917 -1439.9458 -9768.397 -1444.2732 -9783.37 L -1444.304 -9783.348 C -1446.906 -9794.057 -1447.399 -9793.252 -1447.7626 -9801.48 C -1448.4925 -9817.99 -1437.2943 -9831.565 -1421.9166 -9835.993 C -1421.644 -9850.571 -1420.948 -9863.038 -1420.948 -9863.038 C -1418.4052 -9899.371 -1404.626 -9917.411 -1388.3634 -9917.411 C -1370.2151 -9917.411 -1359.1709 -9897.007 -1356.8478 -9863.038 C -1356.8478 -9863.038 -1355.8374 -9840.9 -1355.8374 -9822.974 C -1355.8374 -9805.047 -1357.0383 -9788.844 -1357.0383 -9788.844 C -1359.8713 -9744.15 -1371.899 -9727.619 -1390.4925 -9727.619 C -1403.8322 -9727.619 -1419.8061 -9748.089 -1421.1815 -9788.844 C -1421.1815 -9788.844 -1422.0242 -9806.478 -1422.0242 -9825.12 C -1422.0242 -9827.694 -1422.0037 -9830.28 -1421.9683 -9832.826 C -1435.1072 -9827.899 -1445.11 -9814.827 -1442.6771 -9798.992 C -1442.1127 -9795.318 -1441.9244 -9793.352 -1439.5334 -9786.833 L -1439.5427 -9786.826 C -1432.3413 -9764.55 -1432.5949 -9752.979 -1446.7823 -9722.586 C -1447.2383 -9721.609 -1447.7028 -9720.631 -1448.1754 -9719.652 Z" fill="#4c4c4c"/>
          </g>
          <g id="Graphic_1896">
            <path d="M -1232.9904 -9723.69 L -1232.9904 -10030.002 L -1283.9121 -10030.002 L -1283.9121 -9723.69 L -1283.9121 -9684.195 L -1232.9904 -9684.195 L -1149.8684 -9684.195 L -1149.8684 -9723.69 Z" fill="#c6e443"/>
          </g>
          <g id="Graphic_1895">
            <path d="M -1027.8879 -9829.864 C -1027.8656 -9827.998 -1027.8531 -9827.145 -1027.8531 -9825.269 C -1027.8531 -9806.627 -1027.8531 -9767.167 -1027.8531 -9767.167 C -1027.8531 -9757.15 -1044.9392 -9734.03 -1061.3459 -9730.607 C -1103.3844 -9725.863 -1094.9218 -9769.355 -1092.9797 -9774.083 C -1088.1535 -9785.834 -1082.9032 -9795.159 -1036.1613 -9824.858 Z M -1103.0374 -9817.934 C -1149.077 -9788.214 -1138.4325 -9733.571 -1138.4325 -9733.571 C -1135.6053 -9714.83 -1118.6232 -9680.461 -1074.3349 -9689.336 C -1045.7927 -9697.781 -1040.557 -9716.819 -1025.6402 -9745.135 L -1020.7808 -9685.154 L -969.3995 -9685.154 C -980.8982 -9722.74 -983.0079 -9735.053 -983.0079 -9735.053 L -985.262 -9879.81 C -985.262 -9935.036 -1025.3206 -9960.835 -1063.219 -9960.835 C -1105.5118 -9960.835 -1132.4195 -9928.571 -1137.8331 -9879.058 C -1137.8331 -9879.058 -1138.3265 -9872.825 -1138.8617 -9863.559 L -1090.8833 -9863.559 C -1090.8833 -9890.836 -1083.652 -9920.858 -1060.4018 -9920.36 C -1039.4602 -9919.91 -1029.0786 -9898.418 -1029.0786 -9863.038 C -1029.0786 -9863.038 -1028.9947 -9861.729 -1028.8708 -9859.461 C -1028.8708 -9859.461 -1082.7244 -9831.671 -1103.0374 -9817.934 Z" fill="#c6e443"/>
          </g>
          <g id="Graphic_1894">
            <path d="M -903.1835 -9717.132 C -898.682 -9709.857 -895.554 -9704.865 -895.554 -9704.865 C -876.2337 -9682.457 -856.4021 -9684.274 -844.7615 -9684.195 C -823.6773 -9684.195 -786.1157 -9707.597 -785.2491 -9766.105 C -785.2491 -9766.105 -784.2246 -9777.957 -783.1115 -9820.639 C -783.1115 -9858.633 -783.7412 -9866.068 -783.7412 -9866.068 C -784.2959 -9911.404 -793.9756 -9962.272 -842.1525 -9960.835 C -866.413 -9960.835 -893.7281 -9941.911 -903.1832 -9898.584 L -903.1832 -10030.002 L -948.1621 -10030.002 L -948.1621 -9723.69 L -948.1621 -9684.195 L -903.1835 -9684.195 Z M -903.1832 -9849.179 L -903.1832 -9849.179 C -903.1832 -9879.188 -885.98 -9907.477 -862.8018 -9907.477 C -841.925 -9907.477 -830.4378 -9889.761 -830.4378 -9848.676 C -830.4378 -9848.676 -829.6666 -9831.057 -829.6666 -9813.608 C -829.6666 -9796.158 -830.2074 -9779.227 -830.2074 -9779.227 C -830.2074 -9730.203 -845.2568 -9723.322 -860.33 -9723.322 C -884.5915 -9723.322 -903.0826 -9745.988 -903.0826 -9772.325 L -903.1835 -9772.325 Z" fill="#c6e443"/>
          </g>
        </g>
      </g>
    </g>
  </g>
</svg>
